#!OML:ASF H:\MichaelJackson\Top Level 1\Subject 1\Session 1\male.ASF
:FULLY-SPECIFIED
:DEGREES
183
root -13.963 16.5463 -14.7034 -10.2431 11.2977 -3.28029
lowerback 17.453 -1.85327 -3.85794
upperback 4.35251 -3.00716 1.45385
thorax -4.81204 -1.44106 4.36722
lowerneck -7.1954 -2.6873 1.3646
upperneck -1.20954 -3.70992 1.99875
head 0.83143 -1.827 0.283955
rclavicle 3.17062e-014 -1.98785e-014
rhumerus -51.5216 -20.6618 -67.3867
rradius 83.1039
rwrist -7.55772
rhand -39.4614 -59.8334
rfingers 7.12502
rthumb -12.4485 -89.4427
lclavicle 3.17062e-014 -1.98785e-014
lhumerus -27.5654 -23.9015 84.4616
lradius 52.2339
lwrist 9.77536
lhand 14.3029 11.721
lfingers 7.12502
lthumb 39.195 37.1849
rfemur -92.6074 -26.3611 40.023
rtibia 104.876
rfoot 26.6017 38.3442
rtoes -36.8822
lfemur -15.7997 4.81768 -17.0813
ltibia 44.9705
lfoot -20.9661 -15.9161
ltoes 12.2372
184
root -13.9773 16.5458 -14.6964 -9.71265 11.9152 -3.2108
lowerback 17.1289 -1.99799 -3.78615
upperback 4.19905 -3.18146 1.36367
thorax -4.79513 -1.52513 4.25294
lowerneck -7.06148 -2.81177 1.30595
upperneck -1.41992 -3.86484 2.11365
head 0.746667 -1.90607 0.32836
rclavicle 6.65929e-015 -1.37161e-014
rhumerus -51.9672 -19.5844 -68.9569
rradius 83.6633
rwrist -4.10033
rhand -39.8007 -63.7825
rfingers 7.12502
rthumb -12.7757 -266.628
lclavicle 6.65929e-015 -1.37161e-014
lhumerus -27.2039 -24.9424 85.0778
lradius 52.3811
lwrist 9.24605
lhand 15.972 12.5634
lfingers 7.12502
lthumb 40.7658 37.5538
rfemur -92.2234 -26.4814 39.8084
rtibia 107.843
rfoot 27.9611 39.9143
rtoes -37.3451
lfemur -16.4916 4.94094 -17.1953
ltibia 45.0442
lfoot -21.0355 -16.1748
ltoes 12.1562
185
root -13.9944 16.5501 -14.6906 -9.18789 12.4625 -3.0687
lowerback 16.8353 -2.10981 -3.85289
upperback 4.05842 -3.3374 1.27769
thorax -4.77421 -1.59958 4.21846
lowerneck -6.93327 -2.91337 1.27502
upperneck -1.6538 -3.99061 2.20974
head 0.654971 -1.97137 0.363548
rclavicle -5.16592e-014 2.78299e-014
rhumerus -52.4094 -18.3791 -70.6415
rradius 84.5092
rwrist -1.96338
rhand -40.1173 -64.631
rfingers 7.12502
rthumb -13.0809 -265.799
lclavicle -5.16592e-014 2.78299e-014
lhumerus -27.0312 -26.0114 85.7559
lradius 52.6511
lwrist 8.38093
lhand 17.5481 13.2539
lfingers 7.12502
lthumb 42.2445 37.7615
rfemur -91.4759 -26.6607 39.4687
rtibia 110.53
rfoot 28.3004 40.2688
rtoes -37.5161
lfemur -17.0845 5.0447 -17.3714
ltibia 45.001
lfoot -21.1176 -16.0892
ltoes 11.6159
186
root -14.0147 16.558 -14.6856 -8.67066 12.9411 -2.85559
lowerback 16.5953 -2.19757 -4.05934
upperback 3.93009 -3.48641 1.19749
thorax -4.76004 -1.66944 4.26969
lowerneck -6.84848 -2.98676 1.25541
upperneck -1.88819 -4.0802 2.29883
head 0.57035 -2.01861 0.39515
rclavicle -3.02153e-014 -4.37326e-015
rhumerus -52.8459 -17.1047 -72.3958
rradius 85.6059
rwrist -0.657817
rhand -40.31 -62.4419
rfingers 7.12502
rthumb -13.2666 -268
lclavicle -3.02153e-014 -4.37326e-015
lhumerus -27.0289 -27.0931 86.4862
lradius 53.0036
lwrist 7.24461
lhand 19.0098 13.6533
lfingers 7.12502
lthumb 43.6115 37.6796
rfemur -90.3435 -26.8949 38.9514
rtibia 112.868
rfoot 27.4973 39.5895
rtoes -37.5549
lfemur -17.5814 5.17371 -17.5987
ltibia 44.8622
lfoot -21.2176 -15.6166
ltoes 10.5568
187
root -14.0379 16.5691 -14.6799 -8.15858 13.3608 -2.59274
lowerback 16.4064 -2.26661 -4.37787
upperback 3.79585 -3.63079 1.1212
thorax -4.77141 -1.73494 4.39005
lowerneck -6.76778 -3.03727 1.25331
upperneck -2.11392 -4.14059 2.38721
head 0.488962 -2.05136 0.424333
rclavicle 2.96189e-014 -1.66979e-014
rhumerus -53.3421 -15.8368 -74.1406
rradius 86.9137
rwrist 0.369042
rhand -39.9257 -57.3083
rfingers 7.12502
rthumb -12.8962 -446.89
lclavicle 2.96189e-014 -1.66979e-014
lhumerus -27.2274 -28.2156 87.2829
lradius 53.4275
lwrist 5.97786
lhand 20.5201 13.8864
lfingers 7.12502
lthumb 45.0193 37.3784
rfemur -88.8115 -27.1637 38.2205
rtibia 114.767
rfoot 26.0363 37.8496
rtoes -37.4077
lfemur -17.9926 5.38319 -17.8497
ltibia 44.6464
lfoot -21.305 -14.7541
ltoes 9.04693
